<svg width="18.027847" height="18.028656" viewBox="0 0 18.0278 18.0287" fill="none" xmlns="http://www.w3.org/2000/svg" xmlns:xlink="http://www.w3.org/1999/xlink">
	<desc>
			Created with Pixso.
	</desc>
	<defs/>
	<path d="M15.4729 13.2818C15.0438 13.2816 14.6216 13.1734 14.2454 12.9672C13.8691 12.7609 13.5508 12.4633 13.3199 12.1016C13.0891 12.4634 12.7709 12.7611 12.3946 12.9674C12.0184 13.1737 11.5962 13.2818 11.1671 13.2818C10.738 13.2818 10.3158 13.1737 9.93954 12.9674C9.56326 12.7611 9.24504 12.4634 9.01426 12.1016C8.78348 12.4634 8.46526 12.7611 8.08899 12.9674C7.71272 13.1737 7.29053 13.2818 6.86143 13.2818C6.43233 13.2818 6.01015 13.1737 5.63387 12.9674C5.25761 12.7611 4.93938 12.4634 4.7086 12.1016C4.41127 12.5675 3.97086 12.9245 3.45345 13.1188C2.93604 13.3131 2.36954 13.3344 1.839 13.1795C1.30846 13.0245 0.842491 12.7017 0.511024 12.2594C0.179565 11.8171 0.000480652 11.2793 0.000671387 10.7266C0.000671387 10.6199 0.0430527 10.5175 0.118492 10.4421C0.193932 10.3667 0.296249 10.3243 0.402939 10.3243C0.509628 10.3243 0.611946 10.3667 0.687386 10.4421C0.762825 10.5175 0.805206 10.6199 0.805206 10.7266C0.802559 10.9581 0.845879 11.1879 0.932663 11.4026C1.01944 11.6173 1.14796 11.8127 1.31078 11.9774C1.4736 12.1421 1.66748 12.2729 1.88119 12.3621C2.09489 12.4513 2.32418 12.4973 2.55577 12.4973C2.78736 12.4973 3.01665 12.4513 3.23035 12.3621C3.44406 12.2729 3.63794 12.1421 3.80076 11.9774C3.96358 11.8127 4.0921 11.6173 4.17888 11.4026C4.26566 11.1879 4.30898 10.9581 4.30634 10.7266C4.30634 10.6199 4.34872 10.5175 4.42416 10.4421C4.4996 10.3667 4.60191 10.3243 4.7086 10.3243C4.81529 10.3243 4.91761 10.3667 4.99305 10.4421C5.06849 10.5175 5.11087 10.6199 5.11087 10.7266C5.10822 10.9581 5.15154 11.1879 5.23832 11.4026C5.3251 11.6173 5.45363 11.8127 5.61645 11.9774C5.77927 12.1421 5.97314 12.2729 6.18684 12.3621C6.40055 12.4513 6.62984 12.4973 6.86143 12.4973C7.09302 12.4973 7.32231 12.4513 7.53602 12.3621C7.74973 12.2729 7.9436 12.1421 8.10641 11.9774C8.26923 11.8127 8.39776 11.6173 8.48454 11.4026C8.57133 11.1879 8.61465 10.9581 8.61199 10.7266C8.61199 10.6199 8.65437 10.5175 8.72981 10.4421C8.80525 10.3667 8.90757 10.3243 9.01426 10.3243C9.12095 10.3243 9.22327 10.3667 9.29871 10.4421C9.37415 10.5175 9.41653 10.6199 9.41653 10.7266C9.41388 10.9581 9.4572 11.1879 9.54398 11.4026C9.63077 11.6173 9.75928 11.8127 9.9221 11.9774C10.0849 12.1421 10.2788 12.2729 10.4925 12.3621C10.7062 12.4513 10.9355 12.4973 11.1671 12.4973C11.3987 12.4973 11.628 12.4513 11.8417 12.3621C12.0554 12.2729 12.2493 12.1421 12.4121 11.9774C12.5749 11.8127 12.7034 11.6173 12.7902 11.4026C12.877 11.1879 12.9203 10.9581 12.9177 10.7266C12.9177 10.6199 12.96 10.5175 13.0355 10.4421C13.1109 10.3667 13.2132 10.3243 13.3199 10.3243C13.4266 10.3243 13.5289 10.3667 13.6044 10.4421C13.6798 10.5175 13.7222 10.6199 13.7222 10.7266C13.7195 10.9581 13.7629 11.1879 13.8496 11.4026C13.9364 11.6173 14.0649 11.8127 14.2278 11.9774C14.3906 12.1421 14.5845 12.2729 14.7982 12.3621C15.0119 12.4513 15.2412 12.4973 15.4728 12.4973C15.7043 12.4973 15.9336 12.4513 16.1473 12.3621C16.361 12.2729 16.5549 12.1421 16.7177 11.9774C16.8806 11.8127 17.0091 11.6173 17.0959 11.4026C17.1826 11.1879 17.226 10.9581 17.2233 10.7266C17.2233 10.6199 17.2657 10.5175 17.3411 10.4421C17.4166 10.3667 17.5189 10.3243 17.6256 10.3243C17.7323 10.3243 17.8346 10.3667 17.91 10.4421C17.9855 10.5175 18.0278 10.6199 18.0278 10.7266C18.0271 11.404 17.7577 12.0534 17.2787 12.5325C16.7997 13.0115 16.1503 13.281 15.4729 13.2818Z" fill="#AFD1FD" fill-opacity="1.000000" fill-rule="nonzero"/>
	<path d="M15.4729 18.0276C15.0438 18.0275 14.6216 17.9193 14.2454 17.713C13.8691 17.5067 13.5508 17.209 13.3199 16.8473C13.0892 17.2091 12.771 17.5069 12.3947 17.7132C12.0184 17.9195 11.5962 18.0276 11.1671 18.0276C10.738 18.0276 10.3158 17.9195 9.93951 17.7132C9.56323 17.5069 9.24503 17.2091 9.01428 16.8473C8.78354 17.2091 8.46532 17.5069 8.08905 17.7132C7.71278 17.9195 7.29057 18.0276 6.86145 18.0276C6.43233 18.0276 6.01012 17.9195 5.63385 17.7132C5.25757 17.5069 4.93936 17.2091 4.70862 16.8473C4.41146 17.3134 3.97109 17.6706 3.45364 17.8652C2.93618 18.0598 2.36956 18.0812 1.83887 17.9264C1.30818 17.7715 0.842049 17.4486 0.510475 17.0063C0.178902 16.5639 -0.000221252 16.0259 0 15.4731C0 15.3664 0.0423813 15.2641 0.117821 15.1887C0.19326 15.1132 0.295578 15.0708 0.402267 15.0708C0.508957 15.0708 0.611275 15.1132 0.686714 15.1887C0.762154 15.2641 0.804543 15.3664 0.804543 15.4731C0.801888 15.7047 0.845207 15.9345 0.931992 16.1492C1.01877 16.3639 1.14729 16.5593 1.31011 16.724C1.47293 16.8887 1.66681 17.0194 1.88052 17.1086C2.09422 17.1979 2.32351 17.2438 2.5551 17.2438C2.78669 17.2438 3.01598 17.1979 3.22968 17.1086C3.44339 17.0194 3.63727 16.8887 3.80009 16.724C3.96291 16.5593 4.09143 16.3639 4.17821 16.1492C4.26499 15.9345 4.30831 15.7047 4.30566 15.4731C4.30566 15.3664 4.34805 15.2641 4.42348 15.1887C4.49892 15.1132 4.60124 15.0708 4.70793 15.0708C4.81462 15.0708 4.91694 15.1132 4.99238 15.1887C5.06782 15.2641 5.1102 15.3664 5.1102 15.4731C5.10754 15.7047 5.15086 15.9345 5.23765 16.1492C5.32443 16.3639 5.45296 16.5593 5.61578 16.724C5.77859 16.8887 5.97247 17.0194 6.18617 17.1086C6.39988 17.1979 6.62917 17.2438 6.86076 17.2438C7.09235 17.2438 7.32164 17.1979 7.53535 17.1086C7.74905 17.0194 7.94293 16.8887 8.10574 16.724C8.26856 16.5593 8.39709 16.3639 8.48387 16.1492C8.57066 15.9345 8.61398 15.7047 8.61132 15.4731C8.61132 15.3664 8.6537 15.2641 8.72914 15.1887C8.80458 15.1132 8.90691 15.0708 9.01359 15.0708C9.12028 15.0708 9.2226 15.1132 9.29803 15.1887C9.37347 15.2641 9.41586 15.3664 9.41586 15.4731C9.41321 15.7047 9.45653 15.9345 9.54331 16.1492C9.6301 16.3639 9.75861 16.5593 9.92143 16.724C10.0843 16.8887 10.2781 17.0194 10.4918 17.1086C10.7055 17.1979 10.9348 17.2438 11.1664 17.2438C11.398 17.2438 11.6273 17.1979 11.841 17.1086C12.0547 17.0194 12.2486 16.8887 12.4114 16.724C12.5742 16.5593 12.7028 16.3639 12.7895 16.1492C12.8763 15.9345 12.9196 15.7047 12.917 15.4731C12.917 15.3664 12.9594 15.2641 13.0348 15.1887C13.1102 15.1132 13.2126 15.0708 13.3193 15.0708C13.4259 15.0708 13.5283 15.1132 13.6037 15.1887C13.6791 15.2641 13.7215 15.3664 13.7215 15.4731C13.7189 15.7047 13.7622 15.9345 13.849 16.1492C13.9358 16.3639 14.0643 16.5593 14.2271 16.724C14.3899 16.8887 14.5838 17.0194 14.7975 17.1086C15.0112 17.1979 15.2405 17.2438 15.4721 17.2438C15.7037 17.2438 15.933 17.1979 16.1467 17.1086C16.3604 17.0194 16.5542 16.8887 16.7171 16.724C16.8799 16.5593 17.0084 16.3639 17.0952 16.1492C17.182 15.9345 17.2253 15.7047 17.2226 15.4731C17.2226 15.3664 17.265 15.2641 17.3405 15.1887C17.4159 15.1132 17.5182 15.0708 17.6249 15.0708C17.7316 15.0708 17.8339 15.1132 17.9094 15.1887C17.9848 15.2641 18.0272 15.3664 18.0272 15.4731C18.0263 16.1503 17.7569 16.7995 17.2781 17.2783C16.7992 17.7572 16.1501 18.0266 15.4729 18.0276Z" fill="#9AA1EB" fill-opacity="1.000000" fill-rule="nonzero"/>
	<path d="M10.8167 1.63641L9.29791 0.11792C9.26059 0.0805359 9.21627 0.0508728 9.16748 0.0306396C9.11869 0.0104065 9.06638 0 9.01357 0C8.96075 0 8.90845 0.0104065 8.85965 0.0306396C8.81086 0.0508728 8.76654 0.0805359 8.72922 0.11792L7.21048 1.63641C7.13503 1.71185 7.09265 1.81418 7.09265 1.9209C7.09265 2.02759 7.13503 2.12991 7.21048 2.20535C7.28593 2.28079 7.38824 2.32318 7.49494 2.32318C7.60164 2.32318 7.70396 2.28079 7.7794 2.20535L8.6113 1.37344L8.6113 5.38327C8.6113 5.48996 8.65368 5.59229 8.72912 5.66772C8.80456 5.74316 8.90688 5.78555 9.01357 5.78555C9.12025 5.78555 9.22257 5.74316 9.29801 5.66772C9.37345 5.59229 9.41583 5.48996 9.41583 5.38327L9.41583 1.37344L10.2477 2.20535C10.2851 2.24271 10.3294 2.27234 10.3782 2.29254C10.427 2.31277 10.4794 2.32318 10.5322 2.32318C10.585 2.32318 10.6373 2.31277 10.6861 2.29254C10.7349 2.27234 10.7793 2.24271 10.8167 2.20535C10.854 2.168 10.8836 2.12363 10.9039 2.07483C10.9241 2.02603 10.9345 1.97372 10.9345 1.9209C10.9345 1.86804 10.9241 1.81573 10.9039 1.76694C10.8836 1.71814 10.854 1.67377 10.8167 1.63641Z" fill="#BFFDFF" fill-opacity="1.000000" fill-rule="nonzero"/>
	<path d="M2.91284 2.8685C2.8755 2.83112 2.83116 2.80145 2.78235 2.78122C2.73354 2.76099 2.68122 2.75058 2.62838 2.75058C2.57554 2.75058 2.52322 2.76099 2.47441 2.78122C2.4256 2.80145 2.38126 2.83112 2.34392 2.8685L0.825409 4.38702C0.749962 4.46246 0.707581 4.56479 0.707581 4.67148C0.707581 4.77817 0.749962 4.88049 0.825409 4.95593C0.900856 5.0314 1.00317 5.07376 1.10987 5.07376C1.21657 5.07376 1.31889 5.0314 1.39433 4.95593L2.22623 4.12405L2.22623 8.13388C2.22623 8.24057 2.26861 8.34286 2.34405 8.4183C2.41949 8.49377 2.5218 8.53613 2.62849 8.53613C2.73518 8.53613 2.8375 8.49377 2.91294 8.4183C2.98838 8.34286 3.03076 8.24057 3.03076 8.13388L3.03076 4.12405L3.86266 4.95593C3.93854 5.02921 4.04016 5.06973 4.14564 5.06879C4.25111 5.06787 4.352 5.02554 4.42657 4.95093C4.50114 4.87634 4.54342 4.77542 4.54431 4.66995C4.54521 4.56448 4.50465 4.46286 4.43135 4.38702L2.91284 2.8685Z" fill="#BFFDFF" fill-opacity="1.000000" fill-rule="nonzero"/>
	<path d="M17.2017 4.38702L15.6831 2.8685C15.6458 2.83112 15.6015 2.80145 15.5527 2.78122C15.5038 2.76099 15.4515 2.75058 15.3987 2.75058C15.3458 2.75058 15.2935 2.76099 15.2447 2.78122C15.1959 2.80145 15.1516 2.83112 15.1142 2.8685L13.5957 4.38702C13.5573 4.42413 13.5266 4.46851 13.5055 4.51758C13.4844 4.56665 13.4733 4.61945 13.4729 4.67285C13.4724 4.72626 13.4826 4.77924 13.5028 4.82867C13.523 4.87811 13.5528 4.92303 13.5906 4.96082C13.6284 4.9986 13.6733 5.02847 13.7227 5.04871C13.7721 5.06894 13.8251 5.07913 13.8785 5.07867C13.9319 5.07822 13.9847 5.06714 14.0338 5.04608C14.0829 5.02499 14.1273 4.99435 14.1644 4.95593L14.9963 4.12405L14.9963 8.13388C14.9963 8.24057 15.0387 8.34286 15.1141 8.4183C15.1896 8.49377 15.2919 8.53613 15.3986 8.53613C15.5052 8.53613 15.6076 8.49377 15.683 8.4183C15.7585 8.34286 15.8008 8.24057 15.8008 8.13388L15.8008 4.12405L16.6327 4.95593C16.7082 5.0314 16.8105 5.07376 16.9172 5.07376C17.0239 5.07376 17.1262 5.0314 17.2017 4.95593C17.2771 4.88049 17.3195 4.77817 17.3195 4.67148C17.3195 4.56479 17.2771 4.46246 17.2017 4.38702Z" fill="#BFFDFF" fill-opacity="1.000000" fill-rule="nonzero"/>
	<path d="M6.84428 6.25537C6.79145 6.25534 6.73913 6.26572 6.69031 6.28592C6.64149 6.30612 6.59713 6.33575 6.55977 6.37314C6.52242 6.41049 6.49278 6.45483 6.47257 6.50366C6.45237 6.55249 6.44199 6.6048 6.44202 6.65765L6.44202 10.0482C6.44202 10.1549 6.4844 10.2572 6.55984 10.3326C6.63528 10.4081 6.73759 10.4505 6.84428 10.4505C6.95097 10.4505 7.05329 10.4081 7.12874 10.3326C7.20418 10.2572 7.24656 10.1549 7.24656 10.0482L7.24656 6.65787C7.24659 6.60501 7.23621 6.5527 7.216 6.50385C7.1958 6.45502 7.16618 6.41064 7.12881 6.37326C7.09146 6.33591 7.0471 6.30624 6.99828 6.28601C6.94946 6.26578 6.89713 6.25537 6.84428 6.25537Z" fill="#BFFDFF" fill-opacity="1.000000" fill-rule="nonzero"/>
	<path d="M11.183 6.25537C11.1302 6.25534 11.0779 6.26572 11.0291 6.28592C10.9802 6.30612 10.9359 6.33575 10.8985 6.37314C10.8612 6.41049 10.8315 6.45483 10.8113 6.50366C10.7911 6.55249 10.7807 6.6048 10.7808 6.65765L10.7808 10.0482C10.7808 10.1549 10.8231 10.2572 10.8986 10.3326C10.974 10.4081 11.0763 10.4505 11.183 10.4505C11.2897 10.4505 11.392 10.4081 11.4675 10.3326C11.5429 10.2572 11.5853 10.1549 11.5853 10.0482L11.5853 6.65787C11.5853 6.60501 11.575 6.5527 11.5547 6.50385C11.5345 6.45502 11.5049 6.41064 11.4676 6.37326C11.4302 6.33591 11.3858 6.30624 11.337 6.28601C11.2882 6.26578 11.2359 6.25537 11.183 6.25537Z" fill="#BFFDFF" fill-opacity="1.000000" fill-rule="nonzero"/>
</svg>
